<?xml version="1.0"?>
<svg width="640" height="140" xmlns="http://www.w3.org/2000/svg" xmlns:svg="http://www.w3.org/2000/svg">
 <!-- Created with SVG-edit - https://github.com/SVG-Edit/svgedit-->

 <g class="layer">
  <title>Layer 1</title>
  <path d="m423.758561,31.863482c-16.66667,0 -30.164756,11.410532 -30.164756,25.499608c0,14.07936 13.498087,25.496369 30.164756,25.496369c16.651344,0 30.157093,-11.41701 30.157093,-25.496369c0.003831,-14.089076 -13.498087,-25.499608 -30.157093,-25.499608zm0,44.521481c-12.429121,-0.025911 -22.4751,-8.518223 -22.505751,-19.018633c0.02682,-10.503649 10.07663,-18.9992 22.505751,-19.025111c12.421458,0.025911 22.467437,8.521462 22.494257,19.025111c-0.02682,10.50041 -10.072799,18.992722 -22.494257,19.018633zm0,-46.228364c2.118774,0 3.831418,-1.451013 3.831418,-3.242107l0,-15.711749c-0.007663,-1.791094 -1.716475,-3.238868 -3.831418,-3.238868c-2.118774,0 -3.83525,1.454252 -3.831418,3.245346l0,15.70851c0,1.784616 1.712644,3.238868 3.831418,3.238868zm12.310347,2.066398c0.478927,0.17166 0.977012,0.246154 1.463602,0.249393c1.509579,0 2.931035,-0.754656 3.544062,-2.00162l7.111112,-14.519846c0.804598,-1.655062 -0.118774,-3.546561 -2.072797,-4.229962c-1.957855,-0.683401 -4.199234,0.100405 -5.011495,1.752228l-7.107281,14.523084c-0.808429,1.651823 0.118774,3.546561 2.072797,4.226723zm10.440615,5.897979c0.747127,0.62834 1.72797,0.948988 2.708813,0.948988s1.961686,-0.317409 2.708813,-0.948988l13.141765,-11.119034c1.498085,-1.263159 1.494253,-3.313362 0,-4.582998c-1.501916,-1.263159 -3.927204,-1.263159 -5.421457,0.006478l-13.137933,11.112556c-1.498085,1.266397 -1.498085,3.316601 0,4.582998zm6.984676,8.822677c0.605364,1.246964 2.034483,1.998382 3.536399,1.998382c0.48659,0 0.984675,-0.080972 1.467433,-0.252632l17.164754,-6.014578c1.957855,-0.683401 2.885058,-2.581378 2.072797,-4.233201s-3.049809,-2.435629 -5.007664,-1.748989l-17.168585,6.014578c-1.954023,0.68664 -2.877395,2.584617 -2.065134,4.236439zm24.862073,7.161137l-18.58621,0.003239c-2.114943,0 -3.831418,1.451013 -3.823755,3.242107c0,1.791094 1.712644,3.235629 3.823755,3.235629l18.590042,-0.006478c2.118774,0 3.827587,-1.454252 3.827587,-3.238868c0,-1.791094 -1.716475,-3.242107 -3.831418,-3.235629zm-2.67433,17.904463l-17.172417,-6.004861c-1.961686,-0.68664 -4.203066,0.097166 -5.007664,1.752228c-0.808429,1.655062 0.118774,3.549799 2.072797,4.236439l17.172417,6.004861c0.482759,0.165182 0.980843,0.242915 1.467433,0.242915c1.505747,0 2.931035,-0.751417 3.544062,-1.998382c0.804598,-1.655062 -0.126437,-3.553038 -2.076629,-4.233201zm-23.731805,4.576521c-1.498085,-1.266397 -3.919541,-1.266397 -5.417625,0.003239c-1.498085,1.263159 -1.494253,3.310123 0,4.576521l13.15709,11.106079c0.747127,0.631579 1.724138,0.948988 2.704981,0.948988s1.965518,-0.317409 2.712644,-0.948988c1.498085,-1.269636 1.490422,-3.31984 0,-4.582998l-13.15709,-11.10284zm-10.846745,7.653445c-0.808429,-1.655062 -3.049809,-2.435629 -5.007664,-1.752228c-1.954023,0.68664 -2.881227,2.581378 -2.068966,4.236439l7.126438,14.510129c0.609196,1.246964 2.034483,1.998382 3.544062,1.998382c0.490422,0 0.988506,-0.077733 1.467433,-0.246154c1.957855,-0.683401 2.881227,-2.581378 2.068966,-4.239678l-7.130269,-14.50689zm-17.306516,0.333603c-2.118774,0 -3.831418,1.451013 -3.831418,3.238868l0.015326,15.711749c0,1.791094 1.720307,3.235629 3.831418,3.235629c2.118774,0 3.831418,-1.451013 3.823755,-3.238868l-0.011494,-15.714988c0,-1.781377 -1.720307,-3.235629 -3.827587,-3.23239zm-12.321841,-2.05992c-1.954023,-0.680162 -4.191572,0.100405 -5.003832,1.758705l-7.095787,14.519846c-0.804598,1.655062 0.126437,3.549799 2.08046,4.233201c0.478927,0.168421 0.97318,0.246154 1.463602,0.246154c1.501916,0 2.931035,-0.757895 3.540231,-2.004859l7.099618,-14.526323c0.808429,-1.651823 -0.126437,-3.543322 -2.084292,-4.226723zm-10.444446,-5.885023c-1.501916,-1.266397 -3.927204,-1.25992 -5.421457,0.006478l-13.126439,11.119034c-1.498085,1.269636 -1.490422,3.313362 0.007663,4.582998c0.747127,0.62834 1.724138,0.945749 2.704981,0.945749c0.984675,0 1.965518,-0.317409 2.712644,-0.948988l13.130271,-11.122273c1.490422,-1.266397 1.490422,-3.316601 -0.007663,-4.582998zm-6.988507,-8.81296c-0.816092,-1.648584 -3.05364,-2.43239 -5.007664,-1.748989l-17.160923,6.027533c-1.957855,0.68664 -2.881227,2.584617 -2.068966,4.236439c0.613027,1.246964 2.034483,1.995143 3.540231,1.995143c0.48659,0 0.988506,-0.077733 1.467433,-0.246154l17.160923,-6.027533c1.950192,-0.693118 2.877395,-2.587856 2.068966,-4.236439zm-2.475096,-10.403244c0,-1.791094 -1.712644,-3.235629 -3.831418,-3.235629l-18.58621,0.019433c-2.118774,0 -3.83525,1.451013 -3.827587,3.242107c0.003831,1.784616 1.720307,3.238868 3.831418,3.23239l18.590042,-0.019433c2.114943,0 3.831418,-1.457491 3.823755,-3.238868zm-19.754793,-14.6494l17.183911,5.991906c0.478927,0.17166 0.97318,0.246154 1.45977,0.246154c1.505747,0 2.934866,-0.751417 3.544062,-2.00162c0.812261,-1.655062 -0.122605,-3.553038 -2.084292,-4.229962l-17.176248,-5.991906c-1.957855,-0.680162 -4.195403,0.103644 -5.003832,1.755466c-0.812261,1.655062 0.126437,3.543322 2.076629,4.229962zm23.727974,-4.592715c0.747127,0.625102 1.720307,0.942511 2.70115,0.942511s1.965518,-0.317409 2.716476,-0.955466c1.498085,-1.25992 1.490422,-3.313362 -0.015326,-4.579759l-13.15709,-11.089884c-1.494253,-1.263159 -3.927204,-1.256681 -5.417625,0.009717c-1.498085,1.263159 -1.490422,3.316601 0.007663,4.579759l13.164753,11.093123zm10.83142,-7.666401c0.613027,1.243725 2.038315,1.991904 3.536399,1.991904c0.490422,0 0.988506,-0.080972 1.471265,-0.249393c1.954023,-0.68664 2.885058,-2.584617 2.068966,-4.233201l-7.141764,-14.50689c-0.812261,-1.651823 -3.057472,-2.43239 -5.011495,-1.74575c-1.954023,0.689879 -2.877395,2.587856 -2.065134,4.236439l7.141764,14.50689z" fill="#ffff00" id="svg_13" stroke="#ffff00" stroke-width="0"/>
  <ellipse cx="82.102408" cy="57.759038" fill="#bf5f00" id="svg_7" rx="72.632528" ry="52.445784" stroke="#000000" stroke-width="5"/>
  <ellipse cx="82.301204" cy="55.060241" fill="#bf5f00" id="svg_8" rx="46.831326" ry="33.963855" stroke="#000000" stroke-width="5"/>
  <ellipse cx="82.096385" cy="54.367471" fill="#bf5f00" id="svg_10" rx="27.650603" ry="16.475902" stroke="#000000" stroke-width="5"/>
  <text fill="#ff0000" font-family="Serif" font-size="2" font-weight="bold" id="svg_12" stroke="#ff0000" stroke-width="0" text-anchor="middle" transform="matrix(14.5834 0 0 19.374 -5245.4 -1805.37)" x="386.888783" xml:space="preserve" y="96.818328">GASTRONOMÍA DE MALLORCA</text>
  <ellipse cx="82.590335" cy="54.337358" fill="#bf5f00" id="svg_15" rx="9.939758" ry="7.831325" stroke="#000000" stroke-width="5"/>
 </g>
</svg>