<?xml version="1.0"?>
<svg width="100%" height="100%" xmlns="http://www.w3.org/2000/svg" xmlns:svg="http://www.w3.org/2000/svg">
 <!-- Created with SVG-edit - https://github.com/SVG-Edit/svgedit-->
  <defs>
    <clipPath id="myClip">
 <g class="layer">
  <title>Layer 1</title>
  <path d="m831,11c0,0 -36,12 -36,12c0,0 1,-17 1,-17c0,0 -61,29 -61,29c0,0 -1,-15 -1,-15c0,0 -39,25 -40,26c-1,1 -2,-20 -2,-20c0,0 -28,3 -28,3c0,0 -39,23 -39,23c0,0 -32,-11 -32,-11c0,0 -126,59 -126,59c0,0 -23,-10 -23,-10c0,0 -11,14 -11,14c0,0 -20,3 -20,3c0,0 -7,18 -7,18c0,0 -56,31 -56,31c0,0 0,13 0,13c0,0 -28,1 -29,1c-1,0 -48,39 -47,40c1,1 -70,54 -70,54c0,0 -20,-7 -20,-7c0,0 -176,110 -176,110c0,0 11,17 11,17c0,0 -6,13 -6,13c0,0 14,15 14,15c0,0 5,9 5,9c0,0 14,1 14,1c0,0 -22,13 -22,13c0,0 -1,7 -1,7c0,0 16,-3 16,-3c0,0 7,10 7,10c0,0 17,-17 17,-17c0,0 12,3 12,3c0,0 -2,16 -2,16c0,0 13,-3 13,-3c0,0 7,-9 7,-9c0,0 21,18 21,18c0,0 11,7 11,7c0,0 -16,6 -16,6c0,0 -6,17 -6,17c0,0 14,7 14,7c0,0 3,25 3,25c0,0 11,0 11,0c0,0 7,4 7,8c0,4 15,9 15,9c0,0 4,-16 4,-16c0,0 20,-38 20,-38c0,0 0,-15 0,-15c0,0 22,-11 22,-11c0,0 17,0 17,0c0,0 14,-8 14,-8c0,0 8,-15 8,-15c0,0 16,11 16,11c0,0 10,-8 10,-8c0,0 5,-16 5,-16c0,0 55,26 55,26c0,0 46,51 46,51c0,0 -13,20 -13,20c0,0 -16,18 -16,18c0,0 15,29 15,29c0,0 4,17 4,17c0,0 -12,28 -12,28c0,0 11,26 11,26c0,0 16,13 16,13c0,0 11,17 11,17c0,0 19,2 19,2c0,0 12,11 12,11c0,0 8,4 8,4c0,0 8,-8 8,-8c0,0 43,4 43,4c0,0 21,15 21,15c0,0 18,-12 18,-12c0,0 19,5 19,5c0,0 24,11 24,11c0,0 8,9 8,9c0,0 6,16 6,16c0,0 -8,8 -8,8c0,0 -4,12 -4,12c0,0 14,3 14,3c0,0 17,1 17,1c0,0 3,10 3,11c0,1 -2,14 -2,14c0,0 9,9 9,9c0,0 10,12 10,12c0,0 6,9 6,9c0,0 11,7 11,7c0,0 78,-57 78,-57c0,0 0,-18 0,-18c0,0 14,3 14,5c0,2 17,5 17,5c0,0 14,-11 14,-11c0,0 3,-18 3,-18c0,0 12,5 12,5c0,0 10,-15 10,-15c0,0 11,8 11,8c0,0 10,-11 10,-11c0,0 10,-21 10,-21c0,0 25,-28 25,-28c0,0 11,-45 11,-45c0,0 14,-47 14,-47c0,0 23,-31 23,-31c0,0 43,-24 43,-24c0,0 19,-28 19,-28c0,0 28,-4 28,-4c0,0 1,-16 1,-16c0,0 -17,-14 -17,-14c0,0 9,-23 9,-23c0,0 16,-16 16,-16c0,0 16,6 16,6c0,0 13,-10 13,-10c0,0 1,-18 1,-18c0,0 11,1 11,1c0,0 -5,-34 -5,-34c0,0 12,-23 12,-23c0,0 15,-7 15,-7c0,0 4,-15 4,-15c0,0 -17,5 -17,5c0,0 7,-25 7,-25c0,0 -24,-3 -24,-3c0,0 -12,9 -12,9c0,0 -6,-21 -6,-21c0,0 -8,-13 -8,-13c0,0 -23,-4 -23,-4c0,0 -23,-28 -23,-28c0,0 -17,9 -17,9c0,0 -3,16 -3,16c0,0 -78,38 -78,38c0,0 -20,-2 -20,-2c0,0 -3,-13 -3,-13c0,0 -67,-49 -67,-49c0,0 -16,-28 -16,-28c0,0 0,-47 0,-47c0,0 11,-7 11,-7c0,0 11,7 11,7c0,0 18,0 18,0c0,0 30,-17 30,-17c0,0 -5,-19 -5,-19c0,0 24,-13 24,-13c0,0 -24,-11 -24,-11c0,0 -39,28 -39,28c0,0 -34,6 -34,6c0,0 -19,-18 -19,-18c0,0 -5,-28 -5,-28c0,0 11,-17 11,-17c0,0 20,12 20,12c0,0 9,-12 9,-12c0,0 15,-13 15,-13c0,0 18,2 18,2c0,0 27,-15 27,-15c0,0 20,-4 20,-4c0,0 7,-18 7,-18z" fill="#bf5f00" id="svg_2" stroke="#000000" stroke-width="5"/>
 </g>
 </clipPath>
 </defs>
</svg>